<?xml version="1.0" standalone="no"?>
<!DOCTYPE svg PUBLIC "-//W3C//DTD SVG 20010904//EN"
 "http://www.w3.org/TR/2001/REC-SVG-20010904/DTD/svg10.dtd">
<svg version="1.0" xmlns="http://www.w3.org/2000/svg"
 width="512.000000pt" height="512.000000pt" viewBox="0 0 512.000000 512.000000"
 preserveAspectRatio="xMidYMid meet">
<metadata>
Created by potrace 1.11, written by Peter Selinger 2001-2013
</metadata>
<g transform="translate(0.000000,512.000000) scale(0.100000,-0.100000)"
fill="#000000" stroke="none">
<path d="M2507 5099 c-39 -35 -43 -80 -11 -118 58 -69 170 -13 148 74 -8 33
-35 55 -76 61 -27 5 -40 1 -61 -17z"/>
<path d="M1809 4660 c-36 -35 -38 -79 -6 -114 34 -40 77 -43 115 -11 61 51 34
136 -47 148 -28 5 -39 1 -62 -23z"/>
<path d="M3224 4679 c-31 -11 -54 -48 -54 -84 1 -79 100 -111 150 -48 53 67
-17 162 -96 132z"/>
<path d="M1522 4160 c-44 -18 -133 -200 -163 -333 -12 -56 -14 -58 -38 -53
-138 30 -220 46 -243 46 -60 0 -97 -70 -114 -218 -3 -31 -8 -60 -11 -65 -7
-11 -5 -253 2 -322 4 -33 13 -91 21 -129 8 -38 12 -71 10 -74 -6 -5 -157 99
-205 142 -19 17 -59 55 -90 83 -57 54 -78 62 -99 41 -18 -18 -15 -63 13 -200
14 -68 25 -124 25 -125 0 -1 -12 0 -27 3 -55 9 -149 64 -197 114 -26 27 -52
50 -57 50 -5 0 -18 -9 -28 -19 -20 -20 -20 -18 -6 -201 3 -36 7 -76 9 -90 2
-14 7 -47 11 -75 10 -79 61 -283 93 -375 46 -133 105 -258 168 -358 19 -29 34
-54 34 -57 0 -2 -46 -18 -103 -36 -108 -34 -304 -110 -400 -154 -88 -41 -106
-99 -49 -158 15 -15 65 -54 112 -86 293 -198 571 -297 831 -296 l76 0 -40 -50
c-115 -145 -196 -324 -226 -497 -13 -76 -5 -108 34 -134 33 -22 154 -15 360
21 200 35 377 90 515 160 57 29 60 29 60 12 0 -24 77 -171 119 -226 76 -101
190 -211 321 -311 114 -87 287 -190 319 -190 39 0 236 120 361 220 77 62 211
193 262 258 51 64 138 220 138 247 0 20 2 19 62 -11 187 -95 488 -171 751
-189 108 -8 139 2 158 52 18 48 -29 237 -93 373 -32 67 -130 221 -155 241 -23
20 -14 24 60 25 71 1 173 9 212 18 165 36 344 110 499 203 83 50 217 146 240
171 21 24 24 85 5 108 -32 39 -281 142 -490 204 l-76 22 34 52 c68 102 165
323 200 456 17 66 40 166 47 206 3 16 8 40 10 54 13 65 25 188 30 302 3 63 1
80 -14 93 -23 21 -44 11 -91 -40 -43 -46 -120 -91 -181 -104 -38 -9 -40 -8
-34 12 3 12 15 72 26 132 11 61 22 118 24 128 5 21 -26 57 -48 57 -8 0 -45
-29 -83 -64 -104 -98 -269 -224 -279 -213 -3 3 1 38 10 78 41 205 36 449 -15
644 -26 97 -49 100 -336 38 -18 -4 -23 -1 -23 13 0 34 -50 177 -91 262 -45 93
-83 127 -133 117 -49 -9 -197 -84 -278 -141 -81 -57 -146 -124 -182 -186 -11
-21 -24 -38 -28 -38 -4 0 -49 38 -100 83 -98 88 -269 219 -344 263 -30 18 -52
24 -69 20 -55 -14 -384 -266 -467 -358 -15 -17 -17 -16 -44 29 -62 106 -224
231 -392 303 -76 32 -85 34 -120 20z"/>
<path d="M505 3965 c-24 -23 -27 -32 -22 -68 12 -88 114 -108 155 -30 30 55
-1 111 -65 120 -36 5 -45 2 -68 -22z"/>
<path d="M4520 3983 c-27 -11 -42 -33 -47 -71 -10 -77 87 -123 142 -67 66 65
-7 172 -95 138z"/>
</g>
</svg>
